<svg width="33" height="32" viewBox="0 0 33 32" fill="none" xmlns="http://www.w3.org/2000/svg">
<path fill-rule="evenodd" clip-rule="evenodd" d="M7.07143 0L9.42857 7.38462V12.3077H11V7.38462L13.3571 0H11.7857L10.2143 4.92308L8.64286 0H7.07143ZM15.7143 3.28205C14.8764 3.28205 14.4651 3.41987 13.9526 3.85897C13.4615 4.29167 13.3265 4.625 13.3571 5.74359V9.84615C13.3571 10.6635 13.486 11.2019 13.9587 11.6795C14.4498 12.1571 14.9132 12.3077 15.7143 12.3077C16.5522 12.3077 17.0095 12.1571 17.4821 11.6795C17.9732 11.2212 18.0714 10.6635 18.0714 9.84615V5.74359C18.0714 5.01923 17.9487 4.33333 17.4729 3.875C16.9819 3.40385 16.4754 3.28205 15.7143 3.28205ZM19.6429 3.28205V10.6667C19.6429 11.4647 20.4132 12.3077 21.2143 12.3077C22.0153 12.3077 22.4389 11.8878 22.7857 11.4872V12.3077H24.3571V3.28205H22.7857V9.84615C22.7765 10.4071 22.1443 10.6667 22 10.6667C21.8373 10.6667 21.2143 10.6314 21.2143 9.84615V3.28205H19.6429ZM15.7143 4.92308C15.9506 4.92308 16.5 4.91987 16.5 5.74359V9.84615C16.5 10.641 15.969 10.6667 15.7143 10.6667C15.478 10.6667 14.9286 10.6571 14.9286 9.84615V5.74359C14.9286 5.07372 15.2693 4.92308 15.7143 4.92308ZM4.71429 13.9487C1.89062 13.9487 0 15.9038 0 18.8718V26.6667C0 29.6346 1.89062 32 4.71429 32H28.2857C31.1094 32 33 30.0449 33 27.0769V18.8718C33 15.9038 31.1094 13.9487 28.2857 13.9487H4.71429ZM6.28571 17.2308H11V18.8718H9.42857V28.7179H7.85714V18.8718H6.28571V17.2308ZM17.2857 17.2308H18.8571V20.5128C19.0382 20.2179 19.3083 19.984 19.5661 19.8526C19.8178 19.7179 20.0725 19.641 20.3304 19.641C20.8398 19.641 21.2388 19.8333 21.512 20.1923C21.7852 20.5545 22 21.0353 22 21.7436V26.6667C22 27.2756 21.8036 27.6538 21.5458 27.9776C21.2941 28.3013 20.9166 28.7115 20.4286 28.7179C19.603 28.7276 19.161 28.266 18.8571 27.8974V28.7179H17.2857V17.2308ZM11 19.6923H12.5714V26.2564C12.5714 26.4455 12.7832 27.0833 13.3571 27.0769C13.9955 27.0705 14.0017 26.4487 14.1429 26.2564V19.6923H15.7143V28.7179H14.1429V27.8974C13.8513 28.2564 13.7009 28.3686 13.3725 28.5385C13.0472 28.7308 12.7157 28.7179 12.4088 28.7179C12.0282 28.7179 11.5954 28.359 11.3929 28.0897C11.2118 27.8429 11 27.5897 11 27.0769V19.6923ZM25.2994 19.6923C26.0452 19.6923 26.57 19.859 26.966 20.2949C27.3711 20.7308 27.5 21.2404 27.5 22.0609V24.6154H24.3571V25.8846C24.3571 26.3429 24.4155 26.6346 24.529 26.8077C24.6364 26.9968 24.8544 27.0801 25.1429 27.0769C25.4621 27.0737 25.6646 27.0064 25.772 26.8558C25.8825 26.7212 25.9286 26.3397 25.9286 25.8462V25.4359H27.5V25.9231C27.5 26.8173 27.4325 27.484 27.0089 27.9199C26.6099 28.3782 25.9869 28.5897 25.1705 28.5897C24.4247 28.5897 23.8415 28.359 23.4241 27.8846C23.0067 27.4103 22.7888 26.7596 22.7888 25.9231V22.0609C22.7888 21.3173 23.0374 20.766 23.4947 20.2756C23.863 19.8814 24.5536 19.6923 25.2994 19.6923ZM19.6429 20.9231C19.2101 20.9231 18.8633 21.3301 18.8571 21.7436V26.6667C18.8633 26.9038 19.2101 27.0769 19.6429 27.0769C20.0756 27.0769 20.4286 26.7276 20.4286 26.2756V22.1538C20.4286 21.3333 20.0756 20.9231 19.6429 20.9231ZM25.1429 21.3333C24.7101 21.3333 24.3633 21.7147 24.3571 22.1538V22.9744H25.9286V22.1538C25.9286 21.6506 25.5756 21.3333 25.1429 21.3333Z" fill="white"/>
</svg>
