<svg width="33" height="32" viewBox="0 0 33 32" fill="none" xmlns="http://www.w3.org/2000/svg">
<path d="M16.5 0C7.38756 0 0 7.16369 0 16C0 24.8363 7.38756 32 16.5 32C25.6124 32 33 24.8363 33 16C33 7.16369 25.6124 0 16.5 0ZM23.0511 22.7692C22.2775 20.4283 20.3496 18.6172 17.7997 18.3711V22.7692H17.4062C10.4686 22.7692 6.51115 18.1489 6.34615 10.4615H9.82194C9.93617 16.104 12.4981 18.4942 14.5276 18.9871V10.4615H17.8003V15.328C19.8044 15.1188 21.9101 12.9009 22.6202 10.4615H25.8929C25.3478 13.4677 23.0645 15.6849 21.4405 16.5969C23.0638 17.336 25.6645 19.2702 26.6538 22.7692H23.0511Z" fill="white"/>
</svg>
