<svg width="109" height="35" viewBox="0 0 109 35" fill="none" xmlns="http://www.w3.org/2000/svg">
<path d="M5.32211 4.68119C5.32211 4.28885 5.12534 4.09268 4.7318 4.09268H3.05924C2.6657 4.09268 2.46893 4.28885 2.46893 4.68119V7.81989C2.46893 8.21223 2.6657 8.4084 3.05924 8.4084H4.7318C5.12534 8.4084 5.32211 8.21223 5.32211 7.81989V4.68119ZM7.09305 7.81989C7.09305 8.50648 6.93563 9.00671 6.6208 9.32058C6.31253 9.62791 5.81404 9.78158 5.12534 9.78158H2.6657C1.977 9.78158 1.47523 9.62791 1.1604 9.32058C0.852121 9.00671 0.697983 8.50648 0.697983 7.81989V4.68119C0.697983 3.9946 0.852121 3.49764 1.1604 3.19031C1.47523 2.87644 1.977 2.7195 2.6657 2.7195H5.12534C5.81404 2.7195 6.31253 2.87644 6.6208 3.19031C6.93563 3.49764 7.09305 3.9946 7.09305 4.68119V7.81989Z" fill="black"/>
<path d="M9.85246 5.46587H12.2137C12.9024 5.46587 13.4009 5.6228 13.7092 5.93667C14.024 6.244 14.1814 6.74096 14.1814 7.42755V7.72181C14.1814 8.4084 14.024 8.90863 13.7092 9.2225C13.4009 9.52983 12.9024 9.6835 12.2137 9.6835H8.08152V2.81758H13.5419V4.19077H9.85246V5.46587ZM12.4105 7.42755C12.4105 7.03522 12.2137 6.83905 11.8202 6.83905H9.85246V8.31031H11.8202C12.2137 8.31031 12.4105 8.11414 12.4105 7.72181V7.42755Z" fill="black"/>
<path d="M15.0665 2.81758H19.1987C19.8874 2.81758 20.3859 2.97452 20.6942 3.28839C21.009 3.59572 21.1664 4.09268 21.1664 4.77927V5.76012C21.1664 6.44671 21.009 6.94694 20.6942 7.26081C20.3859 7.56814 19.8874 7.72181 19.1987 7.72181H16.8375V9.6835H15.0665V2.81758ZM19.3955 4.77927C19.3955 4.38694 19.1987 4.19077 18.8052 4.19077H16.8375V6.34862H18.8052C19.1987 6.34862 19.3955 6.15246 19.3955 5.76012V4.77927Z" fill="black"/>
<path d="M22.6952 9.6835H20.7767L23.3839 2.81758H25.3517L27.9589 9.6835H26.0404L25.5976 8.45744H23.138L22.6952 9.6835ZM23.5807 7.18234H25.1549L24.3678 4.87736L23.5807 7.18234Z" fill="black"/>
<path d="M28.0569 8.26127C29.7294 8.35936 30.9101 8.4084 31.5988 8.4084C31.7496 8.4084 31.8677 8.36589 31.953 8.28089C32.0448 8.18934 32.0907 8.06837 32.0907 7.91798V7.52564C32.0907 7.1333 31.8939 6.93713 31.5004 6.93713H29.1391V5.56395H31.3036C31.6972 5.56395 31.8939 5.36778 31.8939 4.97544V4.77927C31.8939 4.38694 31.6972 4.19077 31.3036 4.19077H28.1553V2.81758H31.7955C32.4383 2.81758 32.9106 2.96471 33.2123 3.25897C33.514 3.54668 33.6649 3.98806 33.6649 4.5831C33.6649 4.97544 33.573 5.29585 33.3894 5.54433C33.2123 5.78627 32.9762 5.95629 32.681 6.05437C33.2123 6.19823 33.573 6.55133 33.7633 7.11368C33.8288 7.31639 33.8616 7.55179 33.8616 7.81989V7.91798C33.8616 8.55879 33.7108 9.0296 33.4091 9.33039C33.1073 9.63118 32.6351 9.78158 31.9923 9.78158C30.8969 9.78158 29.5851 9.71619 28.0569 9.58541V8.26127Z" fill="black"/>
<path d="M34.7436 9.6835V2.81758H36.5146V8.31031H38.9742V2.81758H40.7452V8.31031H41.4831V10.9586H39.8105L39.7121 9.6835H34.7436Z" fill="black"/>
<path d="M46.694 4.68119C46.694 4.28885 46.4973 4.09268 46.1037 4.09268H44.4312C44.0376 4.09268 43.8409 4.28885 43.8409 4.68119V7.81989C43.8409 8.21223 44.0376 8.4084 44.4312 8.4084H46.1037C46.4973 8.4084 46.694 8.21223 46.694 7.81989V4.68119ZM48.465 7.81989C48.465 8.50648 48.3076 9.00671 47.9927 9.32058C47.6845 9.62791 47.186 9.78158 46.4973 9.78158H44.0376C43.3489 9.78158 42.8472 9.62791 42.5323 9.32058C42.2241 9.00671 42.0699 8.50648 42.0699 7.81989V4.68119C42.0699 3.9946 42.2241 3.49764 42.5323 3.19031C42.8472 2.87644 43.3489 2.7195 44.0376 2.7195H46.4973C47.186 2.7195 47.6845 2.87644 47.9927 3.19031C48.3076 3.49764 48.465 3.9946 48.465 4.68119V7.81989Z" fill="black"/>
<path d="M49.4535 2.81758H53.3889C54.0317 2.81758 54.5039 2.96471 54.8056 3.25897C55.1074 3.54668 55.2582 3.98806 55.2582 4.5831C55.2582 4.97544 55.1729 5.29585 55.0024 5.54433C54.8319 5.78627 54.622 5.95629 54.3727 6.05437C54.904 6.19823 55.2648 6.55133 55.455 7.11368C55.5206 7.31639 55.5534 7.55179 55.5534 7.81989C55.5534 8.46071 55.4025 8.93151 55.1008 9.23231C54.7991 9.5331 54.3268 9.6835 53.684 9.6835H49.4535V2.81758ZM53.7824 7.52564C53.7824 7.1333 53.5857 6.93713 53.1921 6.93713H51.2244V8.31031H53.1921C53.5857 8.31031 53.7824 8.11414 53.7824 7.72181V7.52564ZM53.4873 4.77927C53.4873 4.38694 53.2905 4.19077 52.897 4.19077H51.2244V5.56395H52.897C53.2905 5.56395 53.4873 5.36778 53.4873 4.97544V4.77927Z" fill="black"/>
<path d="M58.2094 5.17161H60.4723C61.161 5.17161 61.6595 5.32855 61.9677 5.64242C62.2826 5.94975 62.44 6.44671 62.44 7.1333V7.72181C62.44 8.4084 62.2826 8.90863 61.9677 9.2225C61.6595 9.52983 61.161 9.6835 60.4723 9.6835H56.4385V2.81758H58.2094V5.17161ZM64.998 9.6835H63.2271V2.81758H64.998V9.6835ZM60.669 7.1333C60.669 6.74096 60.4723 6.54479 60.0787 6.54479H58.2094V8.31031H60.0787C60.4723 8.31031 60.669 8.11414 60.669 7.72181V7.1333Z" fill="black"/>
<path d="M70.4115 9.6835V5.46587L68.0503 9.6835H66.1809V2.81758H67.9519V7.03522L70.3131 2.81758H72.1825V9.6835H70.4115ZM68.6406 2.32716C67.7879 2.32716 67.3616 1.90213 67.3616 1.05207V0.757812H68.6406V1.00302C68.6406 1.10111 68.6734 1.18284 68.739 1.24823C68.8046 1.31362 68.8866 1.34632 68.9849 1.34632H69.2801C69.3785 1.34632 69.4605 1.31362 69.5261 1.24823C69.5916 1.18284 69.6244 1.10111 69.6244 1.00302V0.757812H70.9035V1.05207C70.9035 1.90213 70.4771 2.32716 69.6244 2.32716H68.6406Z" fill="black"/>
<path d="M4.87937 15.0781H6.84709L4.63341 18.5111L6.89628 21.944H4.92857L3.55117 19.7862L2.17377 21.944H0.206055L2.46893 18.5111L0.255248 15.0781H2.21312L3.55117 17.236L4.87937 15.0781Z" fill="black"/>
<path d="M11.6249 16.9417C11.6249 16.5494 11.4282 16.3532 11.0346 16.3532H9.36207C8.96853 16.3532 8.77176 16.5494 8.77176 16.9417V20.0804C8.77176 20.4728 8.96853 20.6689 9.36207 20.6689H11.0346C11.4282 20.6689 11.6249 20.4728 11.6249 20.0804V16.9417ZM13.3959 20.0804C13.3959 20.767 13.2385 21.2673 12.9236 21.5811C12.6154 21.8885 12.1169 22.0421 11.4282 22.0421H8.96853C8.27983 22.0421 7.77806 21.8885 7.46323 21.5811C7.15495 21.2673 7.00081 20.767 7.00081 20.0804V16.9417C7.00081 16.2551 7.15495 15.7582 7.46323 15.4509C7.77806 15.137 8.27983 14.9801 8.96853 14.9801H11.4282C12.1169 14.9801 12.6154 15.137 12.9236 15.4509C13.2385 15.7582 13.3959 16.2551 13.3959 16.9417V20.0804Z" fill="black"/>
<path d="M14.3844 15.0781H18.5166C19.2052 15.0781 19.7037 15.2351 20.012 15.5489C20.3268 15.8563 20.4843 16.3532 20.4843 17.0398V18.0207C20.4843 18.7073 20.3268 19.2075 20.012 19.5214C19.7037 19.8287 19.2052 19.9824 18.5166 19.9824H16.1553V21.944H14.3844V15.0781ZM18.7133 17.0398C18.7133 16.6475 18.5165 16.4513 18.123 16.4513H16.1553V18.6092H18.123C18.5165 18.6092 18.7133 18.413 18.7133 18.0207V17.0398Z" fill="black"/>
<path d="M26.8298 21.944H21.3693V15.0781H26.8298V16.4513H23.1403V17.7755H26.0427V19.1486H23.1403V20.5709H26.8298V21.944Z" fill="black"/>
<path d="M32.0419 16.9417C32.0419 16.5494 31.8451 16.3532 31.4516 16.3532H29.779C29.3855 16.3532 29.1887 16.5494 29.1887 16.9417V20.0804C29.1887 20.4728 29.3855 20.6689 29.779 20.6689H31.4516C31.8451 20.6689 32.0419 20.4728 32.0419 20.0804V16.9417ZM33.8128 20.0804C33.8128 20.767 33.6554 21.2673 33.3406 21.5811C33.0323 21.8885 32.5338 22.0421 31.8451 22.0421H29.3855C28.6968 22.0421 28.195 21.8885 27.8802 21.5811C27.5719 21.2673 27.4178 20.767 27.4178 20.0804V16.9417C27.4178 16.2551 27.5719 15.7582 27.8802 15.4509C28.195 15.137 28.6968 14.9801 29.3855 14.9801H31.8451C32.5338 14.9801 33.0323 15.137 33.3406 15.4509C33.6554 15.7582 33.8128 16.2551 33.8128 16.9417V20.0804Z" fill="black"/>
<path d="M36.5722 21.944H34.8013V15.0781H40.1633V16.4513H36.5722V21.944Z" fill="black"/>
<path d="M40.8543 15.0781H44.9865C45.6752 15.0781 46.1737 15.2351 46.482 15.5489C46.7968 15.8563 46.9542 16.3532 46.9542 17.0398V18.0207C46.9542 18.7073 46.7968 19.2075 46.482 19.5214C46.1737 19.8287 45.6752 19.9824 44.9865 19.9824H42.6253V21.944H40.8543V15.0781ZM45.1833 17.0398C45.1833 16.6475 44.9865 16.4513 44.593 16.4513H42.6253V18.6092H44.593C44.9865 18.6092 45.1833 18.413 45.1833 18.0207V17.0398Z" fill="black"/>
<path d="M48.4831 21.944H46.5645L49.1718 15.0781H51.1395L53.7467 21.944H51.8282L51.3854 20.718H48.9258L48.4831 21.944ZM49.3685 19.4429H50.9427L50.1556 17.1379L49.3685 19.4429Z" fill="black"/>
<path d="M61.8185 19.4919C61.8185 20.1785 61.6611 20.6788 61.3463 20.9926C61.038 21.3 60.5395 21.4536 59.8508 21.4536H58.6702V22.1402H56.8993V21.4536H55.7186C55.0299 21.4536 54.5282 21.3 54.2133 20.9926C53.9051 20.6788 53.7509 20.1785 53.7509 19.4919V17.5302C53.7509 16.8437 53.9051 16.3467 54.2133 16.0394C54.5282 15.7255 55.0299 15.5686 55.7186 15.5686H56.8993V14.882H58.6702V15.5686H59.8508C60.5395 15.5686 61.038 15.7255 61.3463 16.0394C61.6611 16.3467 61.8185 16.8437 61.8185 17.5302V19.4919ZM60.0476 17.5302C60.0476 17.1379 59.8508 16.9417 59.4573 16.9417H58.5718V20.0804H59.4573C59.8508 20.0804 60.0476 19.8843 60.0476 19.4919V17.5302ZM55.5219 19.4919C55.5219 19.8843 55.7186 20.0804 56.1122 20.0804H56.9976V16.9417H56.1122C55.7186 16.9417 55.5219 17.1379 55.5219 17.5302V19.4919Z" fill="black"/>
<path d="M68.7044 21.944H66.9334V17.7264L64.5722 21.944H62.7029V15.0781H64.4738V19.2958L66.8351 15.0781H68.7044V21.944Z" fill="black"/>
<path d="M73.8742 19.6881C73.0872 19.7535 72.3427 19.7862 71.6409 19.7862C70.9456 19.7862 70.4471 19.6358 70.1454 19.335C69.8437 19.0342 69.6928 18.5634 69.6928 17.9226V15.0781H71.4638V17.9226C71.4638 18.073 71.5064 18.194 71.5917 18.2855C71.6835 18.3705 71.8049 18.413 71.9557 18.413C72.4936 18.413 73.1331 18.3803 73.8742 18.3149V15.0781H75.6452V21.944H73.8742V19.6881Z" fill="black"/>
<path d="M82.287 21.944H76.8266V15.0781H82.287V16.4513H78.5975V17.7755H81.4999V19.1486H78.5975V20.5709H82.287V21.944Z" fill="black"/>
<path d="M88.3846 21.846C86.9219 21.9767 85.7085 22.0421 84.7443 22.0421C84.1015 22.0421 83.6293 21.8917 83.3276 21.5909C83.0258 21.2902 82.875 20.8193 82.875 20.1785V17.0398C82.875 16.3532 83.0291 15.8563 83.3374 15.5489C83.6522 15.2351 84.154 15.0781 84.8427 15.0781H88.3846V16.4513H85.2362C84.8427 16.4513 84.6459 16.6475 84.6459 17.0398V20.1785C84.6459 20.3289 84.6886 20.4499 84.7738 20.5414C84.8657 20.6264 84.9804 20.6689 85.1182 20.6689C85.2559 20.6689 85.4068 20.6689 85.5708 20.6689C85.7347 20.6624 85.9053 20.6559 86.0824 20.6493C86.2595 20.6428 86.4366 20.6363 86.6136 20.6297C86.7973 20.6232 87.0301 20.6101 87.3122 20.5905C87.6008 20.5709 87.9583 20.548 88.3846 20.5218V21.846Z" fill="black"/>
<path d="M94.1905 14.9801C94.3545 14.9801 94.6496 15.0127 95.076 15.0781V16.4023H94.6824C94.584 16.4023 94.4955 16.435 94.4168 16.5004C94.3381 16.5592 94.279 16.6246 94.2397 16.6965L93.305 18.462L95.2235 21.944H93.3542L91.8292 19.1486H90.9438V21.944H89.1728V15.0781H90.9438V17.7755H91.8292L92.8131 15.9119C92.9574 15.6372 93.1345 15.4149 93.3444 15.2449C93.5608 15.0683 93.8429 14.9801 94.1905 14.9801Z" fill="black"/>
<path d="M101.813 21.944H100.043V17.7264L97.6813 21.944H95.8119V15.0781H97.5829V19.2958L99.9441 15.0781H101.813V21.944Z" fill="black"/>
<path d="M107.229 21.944V17.7264L104.868 21.944H102.999V15.0781H104.77V19.2958L107.131 15.0781H109V21.944H107.229ZM105.458 14.5877C104.606 14.5877 104.179 14.1627 104.179 13.3126V13.0184H105.458V13.2636C105.458 13.3617 105.491 13.4434 105.557 13.5088C105.622 13.5742 105.704 13.6069 105.803 13.6069H106.098C106.196 13.6069 106.278 13.5742 106.344 13.5088C106.409 13.4434 106.442 13.3617 106.442 13.2636V13.0184H107.721V13.3126C107.721 14.1627 107.295 14.5877 106.442 14.5877H105.458Z" fill="black"/>
<path d="M2.12458 34.2046H0.206055L2.81328 27.3387H4.78099L7.38821 34.2046H5.46969L5.02695 32.9785H2.56731L2.12458 34.2046ZM3.01005 31.7034H4.58422L3.79713 29.3985L3.01005 31.7034Z" fill="black"/>
<path d="M13.8813 34.2046H12.1103V31.4092H9.65069V34.2046H7.87975V27.3387H9.65069V30.036H12.1103V27.3387H13.8813V34.2046Z" fill="black"/>
<path d="M20.3793 34.1065C18.9167 34.2373 17.7033 34.3027 16.7391 34.3027C16.0963 34.3027 15.624 34.1523 15.3223 33.8515C15.0206 33.5507 14.8697 33.0799 14.8697 32.4391V29.3004C14.8697 28.6138 15.0239 28.1168 15.3322 27.8095C15.647 27.4956 16.1488 27.3387 16.8375 27.3387H20.3793V28.7119H17.231C16.8375 28.7119 16.6407 28.908 16.6407 29.3004V32.4391C16.6407 32.5895 16.6833 32.7104 16.7686 32.802C16.8604 32.887 16.9752 32.9295 17.1129 32.9295C17.2507 32.9295 17.4015 32.9295 17.5655 32.9295C17.7295 32.923 17.9 32.9164 18.0771 32.9099C18.2542 32.9033 18.4313 32.8968 18.6084 32.8903C18.7921 32.8837 19.0249 32.8707 19.3069 32.851C19.5955 32.8314 19.953 32.8085 20.3793 32.7824V34.1065Z" fill="black"/>
<path d="M22.3974 34.2046H20.4789L23.0861 27.3387H25.0538L27.661 34.2046H25.7425L25.2998 32.9785H22.8401L22.3974 34.2046ZM23.2829 31.7034H24.857L24.07 29.3985L23.2829 31.7034Z" fill="black"/>
<path d="M29.9235 29.987H32.2848C32.9735 29.987 33.472 30.1439 33.7802 30.4578C34.0951 30.7651 34.2525 31.2621 34.2525 31.9487V32.2429C34.2525 32.9295 34.0951 33.4297 33.7802 33.7436C33.472 34.0509 32.9735 34.2046 32.2848 34.2046H28.1526V27.3387H33.613V28.7119H29.9235V29.987ZM32.4815 31.9487C32.4815 31.5563 32.2848 31.3602 31.8912 31.3602H29.9235V32.8314H31.8912C32.2848 32.8314 32.4815 32.6353 32.4815 32.2429V31.9487Z" fill="black"/>
<path d="M37.2037 32.7824C37.1709 33.2532 37.02 33.6259 36.7511 33.9005C36.4822 34.1686 36.1509 34.3027 35.7574 34.3027C35.3639 34.3027 34.9933 34.27 34.6456 34.2046V32.8805H35.0884C35.213 32.8805 35.3147 32.838 35.3934 32.753C35.4786 32.6679 35.5246 32.5633 35.5311 32.4391L35.8263 27.3387H41.2867V34.2046H39.5157V28.7119H37.4496L37.2037 32.7824Z" fill="black"/>
<path d="M44.2394 29.6927H46.6007C47.2894 29.6927 47.7878 29.8497 48.0961 30.1635C48.411 30.4709 48.5684 30.9678 48.5684 31.6544V32.2429C48.5684 32.9295 48.411 33.4297 48.0961 33.7436C47.7878 34.0509 47.2894 34.2046 46.6007 34.2046H42.4685V27.3387H44.2394V29.6927ZM46.7974 31.6544C46.7974 31.2621 46.6007 31.0659 46.2071 31.0659H44.2394V32.8314H46.2071C46.6007 32.8314 46.7974 32.6353 46.7974 32.2429V31.6544Z" fill="black"/>
</svg>
