<svg width="109" height="35" viewBox="0 0 109 35" fill="none" xmlns="http://www.w3.org/2000/svg">
<path d="M5.32211 4.68143C5.32211 4.2891 5.12534 4.09293 4.7318 4.09293H3.05924C2.6657 4.09293 2.46893 4.2891 2.46893 4.68143V7.82014C2.46893 8.21247 2.6657 8.40864 3.05924 8.40864H4.7318C5.12534 8.40864 5.32211 8.21247 5.32211 7.82014V4.68143ZM7.09305 7.82014C7.09305 8.50673 6.93563 9.00696 6.6208 9.32083C6.31252 9.62816 5.81404 9.78182 5.12534 9.78182H2.6657C1.977 9.78182 1.47523 9.62816 1.1604 9.32083C0.852121 9.00696 0.697983 8.50673 0.697983 7.82014V4.68143C0.697983 3.99484 0.852121 3.49788 1.1604 3.19055C1.47523 2.87668 1.977 2.71974 2.6657 2.71974H5.12534C5.81404 2.71974 6.31252 2.87668 6.6208 3.19055C6.93563 3.49788 7.09305 3.99484 7.09305 4.68143V7.82014Z" fill="black"/>
<path d="M9.85246 5.46611H12.2137C12.9024 5.46611 13.4009 5.62304 13.7092 5.93691C14.024 6.24425 14.1814 6.74121 14.1814 7.4278V7.72205C14.1814 8.40864 14.024 8.90887 13.7092 9.22274C13.4009 9.53007 12.9024 9.68374 12.2137 9.68374H8.08152V2.81783H13.5419V4.19101H9.85246V5.46611ZM12.4105 7.4278C12.4105 7.03546 12.2137 6.83929 11.8202 6.83929H9.85246V8.31056H11.8202C12.2137 8.31056 12.4105 8.11439 12.4105 7.72205V7.4278Z" fill="black"/>
<path d="M15.0665 2.81783H19.1987C19.8874 2.81783 20.3859 2.97476 20.6942 3.28863C21.009 3.59597 21.1664 4.09293 21.1664 4.77952V5.76036C21.1664 6.44695 21.009 6.94718 20.6942 7.26105C20.3859 7.56839 19.8874 7.72205 19.1987 7.72205H16.8375V9.68374H15.0665V2.81783ZM19.3955 4.77952C19.3955 4.38718 19.1987 4.19101 18.8052 4.19101H16.8375V6.34887H18.8052C19.1987 6.34887 19.3955 6.1527 19.3955 5.76036V4.77952Z" fill="black"/>
<path d="M22.6952 9.68374H20.7767L23.3839 2.81783H25.3517L27.9589 9.68374H26.0404L25.5976 8.45768H23.138L22.6952 9.68374ZM23.5807 7.18259H25.1549L24.3678 4.8776L23.5807 7.18259Z" fill="black"/>
<path d="M28.0569 8.26152C29.7294 8.3596 30.9101 8.40864 31.5988 8.40864C31.7496 8.40864 31.8677 8.36614 31.953 8.28113C32.0448 8.18959 32.0907 8.06862 32.0907 7.91822V7.52588C32.0907 7.13354 31.8939 6.93738 31.5004 6.93738H29.1391V5.56419H31.3036C31.6972 5.56419 31.8939 5.36802 31.8939 4.97569V4.77952C31.8939 4.38718 31.6972 4.19101 31.3036 4.19101H28.1553V2.81783H31.7955C32.4383 2.81783 32.9106 2.96496 33.2123 3.25921C33.514 3.54692 33.6649 3.9883 33.6649 4.58335C33.6649 4.97569 33.573 5.2961 33.3894 5.54458C33.2123 5.78652 32.9762 5.95653 32.681 6.05462C33.2123 6.19847 33.573 6.55158 33.7633 7.11393C33.8288 7.31664 33.8616 7.55204 33.8616 7.82014V7.91822C33.8616 8.55904 33.7108 9.02984 33.4091 9.33064C33.1073 9.63143 32.6351 9.78182 31.9923 9.78182C30.897 9.78182 29.5851 9.71643 28.0569 9.58566V8.26152Z" fill="black"/>
<path d="M34.7436 9.68374V2.81783H36.5146V8.31056H38.9742V2.81783H40.7452V8.31056H41.4831V10.9588H39.8105L39.7121 9.68374H34.7436Z" fill="black"/>
<path d="M46.694 4.68143C46.694 4.2891 46.4973 4.09293 46.1037 4.09293H44.4312C44.0376 4.09293 43.8409 4.2891 43.8409 4.68143V7.82014C43.8409 8.21247 44.0376 8.40864 44.4312 8.40864H46.1037C46.4973 8.40864 46.694 8.21247 46.694 7.82014V4.68143ZM48.465 7.82014C48.465 8.50673 48.3076 9.00696 47.9927 9.32083C47.6845 9.62816 47.186 9.78182 46.4973 9.78182H44.0376C43.3489 9.78182 42.8472 9.62816 42.5323 9.32083C42.2241 9.00696 42.0699 8.50673 42.0699 7.82014V4.68143C42.0699 3.99484 42.2241 3.49788 42.5323 3.19055C42.8472 2.87668 43.3489 2.71974 44.0376 2.71974H46.4973C47.186 2.71974 47.6845 2.87668 47.9927 3.19055C48.3076 3.49788 48.465 3.99484 48.465 4.68143V7.82014Z" fill="black"/>
<path d="M49.4535 2.81783H53.3889C54.0317 2.81783 54.5039 2.96496 54.8056 3.25921C55.1074 3.54692 55.2582 3.9883 55.2582 4.58335C55.2582 4.97569 55.1729 5.2961 55.0024 5.54458C54.8319 5.78652 54.622 5.95653 54.3727 6.05462C54.904 6.19847 55.2648 6.55158 55.455 7.11393C55.5206 7.31664 55.5534 7.55204 55.5534 7.82014C55.5534 8.46095 55.4025 8.93176 55.1008 9.23255C54.7991 9.53334 54.3268 9.68374 53.684 9.68374H49.4535V2.81783ZM53.7824 7.52588C53.7824 7.13354 53.5857 6.93738 53.1921 6.93738H51.2244V8.31056H53.1921C53.5857 8.31056 53.7824 8.11439 53.7824 7.72205V7.52588ZM53.4873 4.77952C53.4873 4.38718 53.2905 4.19101 52.897 4.19101H51.2244V5.56419H52.897C53.2905 5.56419 53.4873 5.36802 53.4873 4.97569V4.77952Z" fill="black"/>
<path d="M58.2094 5.17186H60.4723C61.161 5.17186 61.6595 5.32879 61.9677 5.64266C62.2826 5.94999 62.44 6.44695 62.44 7.13354V7.72205C62.44 8.40864 62.2826 8.90887 61.9677 9.22274C61.6595 9.53007 61.161 9.68374 60.4723 9.68374H56.4385V2.81783H58.2094V5.17186ZM64.998 9.68374H63.2271V2.81783H64.998V9.68374ZM60.669 7.13354C60.669 6.74121 60.4723 6.54504 60.0787 6.54504H58.2094V8.31056H60.0787C60.4723 8.31056 60.669 8.11439 60.669 7.72205V7.13354Z" fill="black"/>
<path d="M70.4115 9.68374V5.46611L68.0503 9.68374H66.1809V2.81783H67.9519V7.03546L70.3131 2.81783H72.1825V9.68374H70.4115ZM68.6406 2.32741C67.7879 2.32741 67.3616 1.90237 67.3616 1.05231V0.758057H68.6406V1.00327C68.6406 1.10135 68.6734 1.18309 68.739 1.24848C68.8046 1.31387 68.8866 1.34656 68.9849 1.34656H69.2801C69.3785 1.34656 69.4605 1.31387 69.5261 1.24848C69.5916 1.18309 69.6244 1.10135 69.6244 1.00327V0.758057H70.9035V1.05231C70.9035 1.90237 70.4771 2.32741 69.6244 2.32741H68.6406Z" fill="black"/>
<path d="M4.87937 15.0784H6.84709L4.63341 18.5113L6.89628 21.9443H4.92857L3.55117 19.7864L2.17377 21.9443H0.206055L2.46893 18.5113L0.255248 15.0784H2.21312L3.55117 17.2362L4.87937 15.0784Z" fill="black"/>
<path d="M11.6249 16.942C11.6249 16.5496 11.4282 16.3535 11.0346 16.3535H9.36207C8.96853 16.3535 8.77176 16.5496 8.77176 16.942V20.0807C8.77176 20.473 8.96853 20.6692 9.36207 20.6692H11.0346C11.4282 20.6692 11.6249 20.473 11.6249 20.0807V16.942ZM13.3959 20.0807C13.3959 20.7673 13.2385 21.2675 12.9236 21.5814C12.6154 21.8887 12.1169 22.0424 11.4282 22.0424H8.96853C8.27983 22.0424 7.77806 21.8887 7.46323 21.5814C7.15495 21.2675 7.00081 20.7673 7.00081 20.0807V16.942C7.00081 16.2554 7.15495 15.7584 7.46323 15.4511C7.77806 15.1372 8.27983 14.9803 8.96853 14.9803H11.4282C12.1169 14.9803 12.6154 15.1372 12.9236 15.4511C13.2385 15.7584 13.3959 16.2554 13.3959 16.942V20.0807Z" fill="black"/>
<path d="M14.3844 15.0784H18.5166C19.2052 15.0784 19.7037 15.2353 20.012 15.5492C20.3268 15.8565 20.4843 16.3535 20.4843 17.0401V18.0209C20.4843 18.7075 20.3268 19.2077 20.012 19.5216C19.7037 19.8289 19.2052 19.9826 18.5166 19.9826H16.1553V21.9443H14.3844V15.0784ZM18.7133 17.0401C18.7133 16.6477 18.5165 16.4516 18.123 16.4516H16.1553V18.6094H18.123C18.5165 18.6094 18.7133 18.4133 18.7133 18.0209V17.0401Z" fill="black"/>
<path d="M26.8298 21.9443H21.3693V15.0784H26.8298V16.4516H23.1403V17.7757H26.0427V19.1489H23.1403V20.5711H26.8298V21.9443Z" fill="black"/>
<path d="M32.0419 16.942C32.0419 16.5496 31.8451 16.3535 31.4516 16.3535H29.779C29.3855 16.3535 29.1887 16.5496 29.1887 16.942V20.0807C29.1887 20.473 29.3855 20.6692 29.779 20.6692H31.4516C31.8451 20.6692 32.0419 20.473 32.0419 20.0807V16.942ZM33.8128 20.0807C33.8128 20.7673 33.6554 21.2675 33.3406 21.5814C33.0323 21.8887 32.5338 22.0424 31.8451 22.0424H29.3855C28.6968 22.0424 28.195 21.8887 27.8802 21.5814C27.5719 21.2675 27.4178 20.7673 27.4178 20.0807V16.942C27.4178 16.2554 27.5719 15.7584 27.8802 15.4511C28.195 15.1372 28.6968 14.9803 29.3855 14.9803H31.8451C32.5338 14.9803 33.0323 15.1372 33.3406 15.4511C33.6554 15.7584 33.8128 16.2554 33.8128 16.942V20.0807Z" fill="black"/>
<path d="M36.5722 21.9443H34.8013V15.0784H40.1633V16.4516H36.5722V21.9443Z" fill="black"/>
<path d="M40.8543 15.0784H44.9865C45.6752 15.0784 46.1737 15.2353 46.482 15.5492C46.7968 15.8565 46.9542 16.3535 46.9542 17.0401V18.0209C46.9542 18.7075 46.7968 19.2077 46.482 19.5216C46.1737 19.8289 45.6752 19.9826 44.9865 19.9826H42.6253V21.9443H40.8543V15.0784ZM45.1833 17.0401C45.1833 16.6477 44.9865 16.4516 44.593 16.4516H42.6253V18.6094H44.593C44.9865 18.6094 45.1833 18.4133 45.1833 18.0209V17.0401Z" fill="black"/>
<path d="M48.4831 21.9443H46.5645L49.1718 15.0784H51.1395L53.7467 21.9443H51.8282L51.3854 20.7182H48.9258L48.4831 21.9443ZM49.3685 19.4431H50.9427L50.1556 17.1382L49.3685 19.4431Z" fill="black"/>
<path d="M61.8185 19.4922C61.8185 20.1788 61.6611 20.679 61.3463 20.9929C61.038 21.3002 60.5395 21.4539 59.8508 21.4539H58.6702V22.1405H56.8993V21.4539H55.7186C55.0299 21.4539 54.5282 21.3002 54.2133 20.9929C53.9051 20.679 53.7509 20.1788 53.7509 19.4922V17.5305C53.7509 16.8439 53.9051 16.3469 54.2133 16.0396C54.5282 15.7257 55.0299 15.5688 55.7186 15.5688H56.8993V14.8822H58.6702V15.5688H59.8508C60.5395 15.5688 61.038 15.7257 61.3463 16.0396C61.6611 16.3469 61.8185 16.8439 61.8185 17.5305V19.4922ZM60.0476 17.5305C60.0476 17.1382 59.8508 16.942 59.4573 16.942H58.5718V20.0807H59.4573C59.8508 20.0807 60.0476 19.8845 60.0476 19.4922V17.5305ZM55.5219 19.4922C55.5219 19.8845 55.7186 20.0807 56.1122 20.0807H56.9976V16.942H56.1122C55.7186 16.942 55.5219 17.1382 55.5219 17.5305V19.4922Z" fill="black"/>
<path d="M68.7044 21.9443H66.9334V17.7267L64.5722 21.9443H62.7029V15.0784H64.4738V19.296L66.8351 15.0784H68.7044V21.9443Z" fill="black"/>
<path d="M73.8742 19.6884C73.0872 19.7537 72.3427 19.7864 71.6409 19.7864C70.9456 19.7864 70.4471 19.636 70.1454 19.3352C69.8437 19.0345 69.6928 18.5636 69.6928 17.9228V15.0784H71.4638V17.9228C71.4638 18.0732 71.5064 18.1942 71.5917 18.2857C71.6835 18.3707 71.8049 18.4133 71.9557 18.4133C72.4936 18.4133 73.1331 18.3806 73.8742 18.3152V15.0784H75.6452V21.9443H73.8742V19.6884Z" fill="black"/>
<path d="M82.287 21.9443H76.8266V15.0784H82.287V16.4516H78.5975V17.7757H81.4999V19.1489H78.5975V20.5711H82.287V21.9443Z" fill="black"/>
<path d="M88.3846 21.8462C86.9219 21.977 85.7085 22.0424 84.7443 22.0424C84.1015 22.0424 83.6293 21.892 83.3276 21.5912C83.0258 21.2904 82.875 20.8196 82.875 20.1788V17.0401C82.875 16.3535 83.0291 15.8565 83.3374 15.5492C83.6522 15.2353 84.154 15.0784 84.8427 15.0784H88.3846V16.4516H85.2362C84.8427 16.4516 84.6459 16.6477 84.6459 17.0401V20.1788C84.6459 20.3292 84.6886 20.4501 84.7738 20.5417C84.8657 20.6267 84.9804 20.6692 85.1182 20.6692C85.2559 20.6692 85.4068 20.6692 85.5708 20.6692C85.7347 20.6627 85.9053 20.6561 86.0824 20.6496C86.2595 20.643 86.4366 20.6365 86.6136 20.63C86.7973 20.6234 87.0302 20.6103 87.3122 20.5907C87.6008 20.5711 87.9583 20.5482 88.3846 20.5221V21.8462Z" fill="black"/>
<path d="M94.1905 14.9803C94.3545 14.9803 94.6496 15.013 95.076 15.0784V16.4025H94.6824C94.584 16.4025 94.4955 16.4352 94.4168 16.5006C94.3381 16.5595 94.279 16.6248 94.2397 16.6968L93.305 18.4623L95.2235 21.9443H93.3542L91.8292 19.1489H90.9438V21.9443H89.1728V15.0784H90.9438V17.7757H91.8292L92.8131 15.9121C92.9574 15.6375 93.1345 15.4151 93.3444 15.2451C93.5608 15.0686 93.8429 14.9803 94.1905 14.9803Z" fill="black"/>
<path d="M101.813 21.9443H100.043V17.7267L97.6813 21.9443H95.8119V15.0784H97.5829V19.296L99.9441 15.0784H101.813V21.9443Z" fill="black"/>
<path d="M107.229 21.9443V17.7267L104.868 21.9443H102.999V15.0784H104.77V19.296L107.131 15.0784H109V21.9443H107.229ZM105.458 14.588C104.606 14.588 104.179 14.1629 104.179 13.3129V13.0186H105.458V13.2638C105.458 13.3619 105.491 13.4436 105.557 13.509C105.622 13.5744 105.704 13.6071 105.803 13.6071H106.098C106.196 13.6071 106.278 13.5744 106.344 13.509C106.409 13.4436 106.442 13.3619 106.442 13.2638V13.0186H107.721V13.3129C107.721 14.1629 107.295 14.588 106.442 14.588H105.458Z" fill="black"/>
<path d="M52.8876 29.6925H55.2398C55.9258 29.6925 56.4224 29.8493 56.7295 30.1629C57.0431 30.47 57.1999 30.9666 57.1999 31.6526V32.2407C57.1999 32.9267 57.0431 33.4265 56.7295 33.7402C56.4224 34.0472 55.9258 34.2008 55.2398 34.2008H51.1235V27.3403H52.8876V29.6925ZM55.4358 31.6526C55.4358 31.2606 55.2398 31.0646 54.8478 31.0646H52.8876V32.8287H54.8478C55.2398 32.8287 55.4358 32.6327 55.4358 32.2407V31.6526Z" fill="black"/>
<path d="M45.879 32.7797C45.8463 33.2501 45.696 33.6225 45.4281 33.897C45.1603 34.1648 44.8303 34.2988 44.4383 34.2988C44.0463 34.2988 43.6771 34.2661 43.3308 34.2008V32.8777H43.7718C43.896 32.8777 43.9973 32.8352 44.0757 32.7503C44.1606 32.6653 44.2063 32.5608 44.2129 32.4367L44.5069 27.3403H49.9462V34.2008H48.1821V28.7124H46.124L45.879 32.7797Z" fill="black"/>
<path d="M38.6269 29.9865H40.9791C41.6651 29.9865 42.1617 30.1433 42.4688 30.4569C42.7824 30.764 42.9392 31.2606 42.9392 31.9466V32.2407C42.9392 32.9267 42.7824 33.4265 42.4688 33.7402C42.1617 34.0472 41.6651 34.2008 40.9791 34.2008H36.8628V27.3403H42.3021V28.7124H38.6269V29.9865ZM41.1751 31.9466C41.1751 31.5546 40.9791 31.3586 40.587 31.3586H38.6269V32.8287H40.587C40.9791 32.8287 41.1751 32.6327 41.1751 32.2407V31.9466Z" fill="black"/>
<path d="M33.9192 30.3785L32.5471 32.8287H31.175L29.8029 30.3785V34.2008H28.0388V27.3403H29.9009L31.8611 30.9666L33.8212 27.3403H35.6833V34.2008H33.9192V30.3785Z" fill="black"/>
<path d="M22.3059 34.2008H20.3948L22.9919 27.3403H24.9521L27.5492 34.2008H25.6381L25.1971 32.9757H22.7469L22.3059 34.2008ZM23.188 31.7016H24.7561L23.972 29.3985L23.188 31.7016Z" fill="black"/>
<path d="M20.2955 34.1028C18.8385 34.2334 17.6297 34.2988 16.6693 34.2988C16.0289 34.2988 15.5585 34.1485 15.258 33.848C14.9574 33.5474 14.8071 33.077 14.8071 32.4367V29.3005C14.8071 28.6144 14.9607 28.1178 15.2678 27.8108C15.5814 27.4971 16.0812 27.3403 16.7673 27.3403H20.2955V28.7124H17.1593C16.7673 28.7124 16.5712 28.9084 16.5712 29.3005V32.4367C16.5712 32.5869 16.6137 32.7078 16.6987 32.7993C16.7901 32.8842 16.9045 32.9267 17.0417 32.9267C17.1789 32.9267 17.3292 32.9267 17.4925 32.9267C17.6558 32.9202 17.8257 32.9136 18.0021 32.9071C18.1785 32.9006 18.355 32.894 18.5314 32.8875C18.7143 32.881 18.9463 32.8679 19.2272 32.8483C19.5147 32.8287 19.8708 32.8058 20.2955 32.7797V34.1028Z" fill="black"/>
<path d="M13.8224 34.2008H12.0583V31.4076H9.60811V34.2008H7.84399V27.3403H9.60811V30.0355H12.0583V27.3403H13.8224V34.2008Z" fill="black"/>
<path d="M2.11108 34.2008H0.199951L2.79712 27.3403H4.75725L7.35442 34.2008H5.44329L5.00227 32.9757H2.5521L2.11108 34.2008ZM2.99313 31.7016H4.56124L3.77719 29.3985L2.99313 31.7016Z" fill="black"/>
</svg>
