<svg width="266" height="265" viewBox="0 0 266 265" fill="none" xmlns="http://www.w3.org/2000/svg">
<circle cx="133" cy="132.113" r="130.113" fill="white" stroke="white" stroke-width="4"/>
<path d="M133.585 91.5422C143.386 91.5422 151.332 83.5966 151.332 73.7951C151.332 63.9936 143.386 56.048 133.585 56.048C123.783 56.048 115.837 63.9936 115.837 73.7951C115.837 83.5966 123.783 91.5422 133.585 91.5422Z" stroke="#1491FF" stroke-width="10" stroke-miterlimit="10" stroke-linecap="round" stroke-linejoin="round"/>
<path d="M145.564 104.853C145.564 104.853 158.209 108.402 167.526 117.941C179.949 130.586 173.96 140.347 167.526 140.347H145.342C143.124 140.347 141.127 138.572 141.127 136.132V126.371" stroke="#1491FF" stroke-width="10" stroke-miterlimit="10" stroke-linecap="round"/>
<path d="M121.384 104.853C121.384 104.853 108.739 108.402 99.4216 117.941C86.9986 130.586 92.9882 140.347 99.4216 140.347H121.605C123.824 140.347 125.82 138.572 125.82 136.132V126.371" stroke="#1491FF" stroke-width="10" stroke-miterlimit="10" stroke-linecap="round"/>
<path d="M121.162 173.845C121.162 173.845 138.022 194.92 163.977 194.92C190.154 194.92 191.485 182.275 173.294 168.743C155.104 155.21 112.289 152.992 92.3232 168.743C72.3576 184.493 83.0059 194.92 104.968 194.92C127.152 194.92 136.913 186.933 136.913 186.933" stroke="#1491FF" stroke-width="10" stroke-miterlimit="10" stroke-linecap="round"/>
</svg>
