<svg width="266" height="265" viewBox="0 0 266 265" fill="none" xmlns="http://www.w3.org/2000/svg">
<circle cx="133" cy="132.18" r="130.113" fill="white" stroke="white" stroke-width="4"/>
<path d="M111.405 136.181C103.862 134.185 83.8965 128.195 83.8965 118.656C83.8965 109.117 101.422 102.462 114.288 102.018" stroke="#1491FF" stroke-width="10" stroke-miterlimit="10" stroke-linecap="round" stroke-linejoin="round"/>
<path d="M173.963 69.8516C179.731 75.1757 192.82 88.9297 188.161 98.247C183.502 107.564 160.875 103.793 152.445 102.018" stroke="#1491FF" stroke-width="10" stroke-miterlimit="10" stroke-linecap="round" stroke-linejoin="round"/>
<path d="M132.922 89.5947C142.723 89.5947 150.669 81.6491 150.669 71.8476C150.669 62.0461 142.723 54.1005 132.922 54.1005C123.12 54.1005 115.175 62.0461 115.175 71.8476C115.175 81.6491 123.12 89.5947 132.922 89.5947Z" stroke="#1491FF" stroke-width="10" stroke-miterlimit="10" stroke-linecap="round" stroke-linejoin="round"/>
<path d="M133.145 104.68L132.701 139.287L81.4565 200.736" stroke="#1491FF" stroke-width="10" stroke-miterlimit="10" stroke-linecap="round" stroke-linejoin="round"/>
<path d="M169.526 200.736C178.622 167.238 169.526 144.833 132.701 139.065" stroke="#1491FF" stroke-width="10" stroke-miterlimit="10" stroke-linecap="round" stroke-linejoin="round"/>
</svg>
