<svg width="265" height="265" viewBox="0 0 265 265" fill="none" xmlns="http://www.w3.org/2000/svg">
<circle cx="132.5" cy="132.18" r="130.113" fill="white" stroke="white" stroke-width="4"/>
<path d="M92.647 191.738L133.687 117.422L174.949 191.738" stroke="#1491FF" stroke-width="10" stroke-miterlimit="10" stroke-linecap="round" stroke-linejoin="round"/>
<path d="M133.687 184.196C162.112 184.196 185.154 161.153 185.154 132.729C185.154 104.305 162.112 81.2625 133.687 81.2625C105.263 81.2625 82.2207 104.305 82.2207 132.729C82.2207 161.153 105.263 184.196 133.687 184.196Z" fill="white" stroke="#1491FF" stroke-width="10" stroke-miterlimit="10" stroke-linecap="round" stroke-linejoin="round"/>
<path d="M131.912 98.5657V136.278H161.194" stroke="#1491FF" stroke-width="10" stroke-miterlimit="10" stroke-linecap="round" stroke-linejoin="round"/>
<path d="M161.417 69.7264C170.956 73.9414 179.386 80.1529 186.263 88.1391C188.481 90.8012 190.7 93.6851 192.474 96.569" stroke="#1491FF" stroke-width="10" stroke-miterlimit="10" stroke-linecap="round" stroke-linejoin="round"/>
<path d="M107.51 69.7264C97.9706 73.9414 89.5406 80.1529 82.6636 88.1391C80.4452 90.8012 78.2269 93.6851 76.4521 96.569" stroke="#1491FF" stroke-width="10" stroke-miterlimit="10" stroke-linecap="round" stroke-linejoin="round"/>
</svg>
