<svg width="266" height="265" viewBox="0 0 266 265" fill="none" xmlns="http://www.w3.org/2000/svg">
<circle cx="133" cy="132.18" r="130.113" fill="white" stroke="white" stroke-width="4"/>
<path d="M135.012 102.472C144.813 102.472 152.759 94.5263 152.759 84.7248C152.759 74.9233 144.813 66.9777 135.012 66.9777C125.21 66.9777 117.265 74.9233 117.265 84.7248C117.265 94.5263 125.21 102.472 135.012 102.472Z" stroke="#1491FF" stroke-width="10" stroke-miterlimit="10" stroke-linecap="round" stroke-linejoin="round"/>
<path d="M135.011 119.553V219.603" stroke="#1491FF" stroke-width="10" stroke-miterlimit="10" stroke-linecap="round" stroke-linejoin="round"/>
<path d="M120.814 144.844C120.814 144.844 91.9746 152.83 91.9746 169.468C91.9746 182.556 111.94 190.099 120.148 192.539" stroke="#1491FF" stroke-width="10" stroke-miterlimit="10" stroke-linecap="round" stroke-linejoin="round"/>
<path d="M160.523 52.3367C170.505 63.2068 174.277 79.1792 168.731 93.8206C163.185 108.462 149.874 118.223 135.233 119.554" stroke="#1491FF" stroke-width="10" stroke-miterlimit="10" stroke-linecap="round" stroke-linejoin="round"/>
<path d="M109.5 52.3367C99.5169 63.2068 95.7456 79.1792 101.292 93.8206C106.838 108.462 120.148 118.223 134.789 119.554" stroke="#1491FF" stroke-width="10" stroke-miterlimit="10" stroke-linecap="round" stroke-linejoin="round"/>
</svg>
