<svg width="220" height="220" viewBox="0 0 220 220" fill="none" xmlns="http://www.w3.org/2000/svg">
<circle cx="110" cy="110" r="110" fill="#1491FF"/>
<path d="M111.675 85.2643C119.836 85.2643 126.452 78.6486 126.452 70.4877C126.452 62.3268 119.836 55.7111 111.675 55.7111C103.514 55.7111 96.8984 62.3268 96.8984 70.4877C96.8984 78.6486 103.514 85.2643 111.675 85.2643Z" stroke="white" stroke-width="8" stroke-miterlimit="10" stroke-linecap="round" stroke-linejoin="round"/>
<path d="M111.674 99.4873V182.791" stroke="white" stroke-width="8" stroke-miterlimit="10" stroke-linecap="round" stroke-linejoin="round"/>
<path d="M99.8524 120.544C99.8524 120.544 75.8403 127.194 75.8403 141.047C75.8403 151.944 92.464 158.224 99.2982 160.256" stroke="white" stroke-width="8" stroke-miterlimit="10" stroke-linecap="round" stroke-linejoin="round"/>
<path d="M132.916 43.5208C141.227 52.5714 144.367 65.8704 139.75 78.0611C135.132 90.2518 124.05 98.379 111.859 99.4872" stroke="white" stroke-width="8" stroke-miterlimit="10" stroke-linecap="round" stroke-linejoin="round"/>
<path d="M90.4343 43.5208C82.1225 52.5714 78.9824 65.8704 83.6001 78.0611C88.2178 90.2518 99.3003 98.379 111.491 99.4872" stroke="white" stroke-width="8" stroke-miterlimit="10" stroke-linecap="round" stroke-linejoin="round"/>
</svg>
