<svg width="220" height="220" viewBox="0 0 220 220" fill="none" xmlns="http://www.w3.org/2000/svg">
<circle cx="110" cy="110" r="106" fill="#1491FF" stroke="#1491FF" stroke-width="8"/>
<path d="M92.021 113.332C85.7409 111.669 69.1172 106.682 69.1172 98.7398C69.1172 90.7973 83.7091 85.2561 94.4222 84.8867" stroke="white" stroke-width="8" stroke-miterlimit="10" stroke-linecap="round" stroke-linejoin="round"/>
<path d="M144.107 58.1044C148.91 62.5374 159.807 73.9893 155.928 81.747C152.05 89.5047 133.209 86.3647 126.19 84.887" stroke="white" stroke-width="8" stroke-miterlimit="10" stroke-linecap="round" stroke-linejoin="round"/>
<path d="M109.939 74.5429C118.1 74.5429 124.716 67.9272 124.716 59.7663C124.716 51.6053 118.1 44.9896 109.939 44.9896C101.778 44.9896 95.1626 51.6053 95.1626 59.7663C95.1626 67.9272 101.778 74.5429 109.939 74.5429Z" stroke="white" stroke-width="8" stroke-miterlimit="10" stroke-linecap="round" stroke-linejoin="round"/>
<path d="M110.123 87.1025L109.753 115.917L67.0859 167.081" stroke="white" stroke-width="8" stroke-miterlimit="10" stroke-linecap="round" stroke-linejoin="round"/>
<path d="M140.409 167.082C147.982 139.191 140.409 120.535 109.747 115.733" stroke="white" stroke-width="8" stroke-miterlimit="10" stroke-linecap="round" stroke-linejoin="round"/>
</svg>
