<svg width="220" height="220" viewBox="0 0 220 220" fill="none" xmlns="http://www.w3.org/2000/svg">
<circle cx="110" cy="110" r="110" fill="#1491FF"/>
<path d="M109.999 73.6077C118.16 73.6077 124.775 66.992 124.775 58.8311C124.775 50.6702 118.16 44.0544 109.999 44.0544C101.838 44.0544 95.2222 50.6702 95.2222 58.8311C95.2222 66.992 101.838 73.6077 109.999 73.6077Z" stroke="white" stroke-width="8" stroke-miterlimit="10" stroke-linecap="round" stroke-linejoin="round"/>
<path d="M110 87.8303L109.815 121.21" stroke="white" stroke-width="8" stroke-miterlimit="10" stroke-linecap="round" stroke-linejoin="round"/>
<path d="M109.807 115.382L89.5156 181.367" stroke="white" stroke-width="8" stroke-miterlimit="10" stroke-linecap="round" stroke-linejoin="round"/>
<path d="M109.811 115.756L128.23 181.576" stroke="white" stroke-width="8" stroke-miterlimit="10" stroke-linecap="round" stroke-linejoin="round"/>
<path d="M92.6443 116.839C83.1647 113.218 79.3504 108.033 79.3516 101.241C79.3527 94.4485 86.156 87.8301 96.5754 87.8301" stroke="white" stroke-width="8" stroke-miterlimit="10" stroke-linecap="round" stroke-linejoin="round"/>
<path d="M127.633 116.839C137.112 113.218 140.926 108.033 140.925 101.241C140.924 94.4485 134.121 87.8301 123.701 87.8301" stroke="white" stroke-width="8" stroke-miterlimit="10" stroke-linecap="round" stroke-linejoin="round"/>
</svg>
